<svg width="84" height="23" viewBox="0 0 84 23" fill="none" xmlns="http://www.w3.org/2000/svg">
<path d="M14.2799 3.983V0.358999H-5.46575e-05V3.983H5.23195V17.375H9.02395V3.983H14.2799ZM22.0484 5.447C21.8084 5.375 21.4484 5.327 21.0884 5.327C20.1284 5.327 18.6164 5.711 17.9924 7.055V5.447H14.4644V17.375H18.1124V12.167C18.1124 9.791 19.4324 8.927 20.8964 8.927C21.2564 8.927 21.6404 8.951 22.0484 9.047V5.447ZM23.6351 14.087C23.6351 15.983 25.1471 17.711 27.7631 17.711C29.3471 17.711 30.4991 17.039 31.1231 16.031C31.1231 16.847 31.2191 17.279 31.2431 17.375H34.5311C34.5071 17.255 34.3871 16.463 34.3871 15.527V9.695C34.3871 7.247 32.9711 5.087 29.1071 5.087C25.6031 5.087 24.0191 7.343 23.8751 9.047L27.0431 9.695C27.1151 8.807 27.8111 7.943 29.0831 7.943C30.2351 7.943 30.8351 8.543 30.8351 9.239C30.8351 9.647 30.6191 9.959 29.9711 10.055L27.1631 10.487C25.1951 10.775 23.6351 11.975 23.6351 14.087ZM28.6511 15.071C27.6431 15.071 27.2351 14.471 27.2351 13.847C27.2351 13.007 27.8111 12.647 28.5791 12.527L30.8351 12.167V12.695C30.8351 14.543 29.7311 15.071 28.6511 15.071ZM48.8645 5.447H45.0245L42.4805 12.863L39.7205 5.447H35.7605L40.6565 17.375H44.3285L48.8645 5.447ZM54.3703 17.375V-0.00100088H50.7223V17.375H54.3703ZM63.0614 14.375C61.6934 14.375 60.3734 13.391 60.3734 11.399C60.3734 9.383 61.6934 8.447 63.0614 8.447C64.4534 8.447 65.7494 9.383 65.7494 11.399C65.7494 13.415 64.4534 14.375 63.0614 14.375ZM63.0614 5.087C59.5094 5.087 56.7254 7.703 56.7254 11.399C56.7254 15.095 59.5094 17.735 63.0614 17.735C66.6374 17.735 69.3974 15.095 69.3974 11.399C69.3974 7.703 66.6374 5.087 63.0614 5.087ZM70.9057 18.047C71.2417 20.183 73.4257 22.295 76.8577 22.295C81.3217 22.295 83.2417 19.319 83.2417 15.887V5.447H79.7617V6.719C79.4257 6.095 78.3937 5.231 76.4497 5.231C73.1857 5.231 70.9057 7.919 70.9057 11.063C70.9057 14.375 73.2817 16.871 76.4497 16.871C78.1777 16.871 79.2097 16.175 79.6417 15.527V16.079C79.6417 18.239 78.5137 19.127 76.6897 19.127C75.3217 19.127 74.3617 18.287 74.1217 17.135L70.9057 18.047ZM77.1217 13.703C75.6577 13.703 74.5537 12.695 74.5537 11.063C74.5537 9.431 75.7537 8.423 77.1217 8.423C78.4897 8.423 79.6657 9.431 79.6657 11.063C79.6657 12.695 78.6097 13.703 77.1217 13.703Z" fill="#191825"/>
</svg>
